<?xml version="1.0" encoding="utf-8"?>
<!-- Generator: Adobe Illustrator 18.1.0, SVG Export Plug-In . SVG Version: 6.00 Build 0)  -->
<svg version="1.1" id="Layer_1" xmlns="http://www.w3.org/2000/svg" xmlns:xlink="http://www.w3.org/1999/xlink" x="0px" y="0px"
	 viewBox="0 0 612 792" enable-background="new 0 0 612 792" xml:space="preserve">
<g>
	<path d="M6.8,1.5h5.8c3.2,0,4.6,2.2,3.9,5.3c-0.5,2.2-1.9,4.1-4.4,4.8v0.1c2.5,0.7,3.2,2.8,2.6,5.5c-0.9,4-3.6,6-8.3,6H2L6.8,1.5z
		 M4.8,21.1h2.3c2.8,0,4.6-1.2,5.2-4c0.6-2.8-0.3-4.4-3.3-4.4H6.7L4.8,21.1z M7.1,10.8h1.3c3.4,0,5.1-1,5.7-4
		c0.5-2.5-0.3-3.4-3.1-3.4H8.7L7.1,10.8z"/>
	<path d="M24.1,1.5l-3.5,15.9c-0.5,2.2-0.3,4.1,2.3,4.1s3.6-1.9,4.1-4.1l3.5-15.9h2.3l-3.5,16c-0.8,3.5-3,6-6.9,6s-5-2.5-4.2-6
		l3.5-16H24.1z"/>
	<path d="M39.4,1.5l-4.8,21.7h-2.3l4.8-21.7H39.4z"/>
	<path d="M46,1.5l-4.4,19.7h7l-0.4,2h-9.3l4.8-21.7H46z"/>
	<path d="M55.4,1.5h4c4.6,0,6.8,2.5,4.9,10.8c-1.9,8.3-5.2,10.8-9.7,10.8h-4L55.4,1.5z M53.4,21.1h1.3c3.4,0,5.7-1.4,7.4-8.8
		c1.6-7.4,0-8.8-3.4-8.8h-1.3L53.4,21.1z"/>
	<path d="M72.9,1.5l-4.8,21.7h-2.3l4.8-21.7H72.9z"/>
	<path d="M80.4,1.5l2,16h0.1l3.5-16h2.3l-4.8,21.7H81L78.5,4.4h-0.1l-4.2,18.8h-2.3l4.8-21.7H80.4z"/>
	<path d="M99.6,8.1c0.4-2.8,0.1-5-2.3-5c-2.6,0-4.4,2.3-5.9,9.1c-1.5,6.8-0.8,9.1,1.8,9.1c2.2,0,3.7-1.2,4.1-3.4l0.7-3.1h-2.9l0.4-2
		h5.3l-2.2,10.1h-1.5l0.1-1.6c-1.2,1.2-2.6,1.9-4.4,1.9c-3.8,0-5.6-2.9-3.7-11.1C90.9,3.9,94,1,97.8,1c4,0,4.7,3.5,4.2,7h-2.4V8.1z"
		/>
	<path d="M110.8,11.8c1-2.5,2.9-4.6,5.6-4.6c2.9,0,4.1,1.7,3.5,4.4l-1.9,8.7c-0.3,1.4-0.4,2.4-0.2,2.8h-2.2v-1.3
		c-1,0.8-2.7,1.6-3.7,1.6c-2.4,0-3.7-1.6-3.2-4c0.9-3.8,5.5-5.8,8.8-6.5l0.2-1.1c0.4-1.7-0.3-2.8-1.6-2.8c-1.7,0-2.8,1.6-3.4,3.1
		L110.8,11.8z M117.1,14.7c-2.1,0.6-5.6,2-6.2,4.5c-0.3,1.5,0.1,2.4,1.7,2.4c1.2,0,2.4-0.8,3.3-1.6L117.1,14.7z"/>
	<path d="M137.9,7c0.3-2.2-0.2-3.9-2.5-3.9c-1.8,0-3.2,1.2-3.6,2.8c-1.1,4.9,7.6,4.9,6.1,11.9c-0.8,3.4-3.2,5.5-6.8,5.5
		c-3.4,0-4.9-2.5-4.1-6.1h2.2c-0.5,2.5,0.3,4.1,2.7,4.1c2,0,3.5-1.3,4-3.6c1.1-4.9-7.5-5.5-6.1-11.7c0.7-3.1,3.2-5,6.3-5
		c3.1,0,4.7,2.1,4,5.9h-2.2V7z"/>
	<path d="M142.3,11.8c1-2.5,2.9-4.6,5.6-4.6c2.9,0,4.1,1.7,3.5,4.4l-1.9,8.7c-0.3,1.4-0.4,2.4-0.2,2.8h-2.2v-1.3
		c-1,0.8-2.7,1.6-3.7,1.6c-2.4,0-3.7-1.6-3.2-4c0.9-3.8,5.5-5.8,8.8-6.5l0.2-1.1c0.4-1.7-0.3-2.8-1.6-2.8c-1.7,0-2.8,1.6-3.4,3.1
		L142.3,11.8z M148.6,14.7c-2.1,0.6-5.6,2-6.2,4.5c-0.3,1.5,0.1,2.4,1.7,2.4c1.2,0,2.4-0.8,3.3-1.6L148.6,14.7z"/>
	<path d="M155.2,7.5h2.4l0.7-3.2c0.5-2.1,1.5-3.2,3.9-3.2c0.6,0,1.1,0.1,1.6,0.2L163.4,3c-0.3-0.2-0.7-0.2-1.1-0.2
		c-1,0-1.7,0.7-1.9,1.6l-0.7,3.1h2.5l-0.4,1.8h-2.5l-3.1,13.8H154l3.1-13.8h-2.4L155.2,7.5z"/>
	<path d="M164.4,15.7l-0.2,0.9c-0.8,3.8-0.3,5.1,1.8,5.1c1.7,0,2.7-1.5,3.3-2.9l2,0.2c-0.8,2.3-3.1,4.5-5.9,4.5
		c-3.3,0-4.2-2.5-3-8.1s3.3-8.1,6.6-8.1c3.3,0,4.1,2.9,3.1,7.4l-0.2,1H164.4z M170,13.9c0.7-3.4,0.4-4.9-1.5-4.9
		c-1.6,0-2.8,1.1-3.7,4.9H170z"/>
	<path d="M30.6,31.5l-1.2,16.9h0.1l7-16.9h1.9L38,48.4h0.1l6.2-16.9h2.2l-8.3,21.7h-2l0.4-17h-0.1l-7.2,17h-2l1.2-21.7H30.6z"/>
	<path d="M50.6,37.2c3.3,0,4.2,2.5,3,8.1c-1.3,5.6-3.3,8.1-6.6,8.1c-3.3,0-4.2-2.5-3-8.1C45.3,39.7,47.3,37.2,50.6,37.2z M47.4,51.6
		c1.8,0,2.9-1.1,4-6.3c1.1-5.2,0.6-6.3-1.2-6.3c-1.8,0-2.9,1.1-4,6.3C45,50.5,45.6,51.6,47.4,51.6z"/>
	<path d="M58.4,37.5h2.2l-0.4,1.9h0.1c1.7-1.9,2.7-2.2,4.4-2.2l-0.5,2c-1.6,0-3,0.5-4.6,2.8l-2.5,11.1h-2.2L58.4,37.5z"/>
	<path d="M68.3,31.5h2.2l-4.8,21.7h-2.2L68.3,31.5z"/>
	<path d="M77.5,51.6L77.5,51.6c-1.1,1.1-2.3,1.8-3.7,1.8c-2.5,0-4-2.1-2.7-8.1s3.8-8.1,6.3-8.1c1.2,0,2,0.7,2.6,1.4l1.6-7.2h2.2
		l-3.9,17.5c-0.5,2-0.6,3.3-0.6,4.2h-2L77.5,51.6z M79.6,40.4c-0.5-0.6-1.1-1.4-2-1.4c-1.8,0-3.2,1.5-4.3,6.3s-0.3,6.3,1.5,6.3
		c0.7,0,1.8-0.6,2.6-1.5L79.6,40.4z"/>
	<path d="M91.9,37.5h2.4l0.7-3.2c0.5-2.1,1.5-3.2,3.9-3.2c0.6,0,1.2,0.1,1.6,0.2l-0.4,1.7c-0.3-0.2-0.7-0.2-1.1-0.2
		c-1,0-1.7,0.7-1.9,1.6l-0.7,3.1h2.5l-0.4,1.8H96l-3.1,13.8h-2.2l3.1-13.8h-2.4L91.9,37.5z"/>
	<path d="M105.6,37.2c3.3,0,4.2,2.5,3,8.1c-1.3,5.6-3.3,8.1-6.6,8.1s-4.2-2.5-3-8.1S102.3,37.2,105.6,37.2z M102.4,51.6
		c1.8,0,2.9-1.1,4-6.3c1.1-5.2,0.6-6.3-1.2-6.3s-2.9,1.1-4,6.3C100,50.5,100.6,51.6,102.4,51.6z"/>
	<path d="M113.3,37.5h2.2l-0.4,1.9h0.1c1.7-1.9,2.7-2.2,4.4-2.2l-0.5,2c-1.6,0-3,0.5-4.6,2.8L112,53.1h-2.1L113.3,37.5z"/>
	<path d="M137.2,38.1c0.4-2.8,0.1-5-2.3-5c-2.6,0-4.4,2.3-5.9,9.1c-1.5,6.8-0.8,9.1,1.8,9.1c2.2,0,3.7-1.2,4.1-3.4l0.7-3.1h-2.9
		l0.4-2h5.3l-2.2,10.1h-1.5l0.1-1.6c-1.2,1.2-2.6,1.9-4.4,1.9c-3.8,0-5.6-2.9-3.7-11.1c1.8-8.2,4.9-11.1,8.7-11.1c4,0,4.7,3.5,4.2,7
		h-2.4V38.1z"/>
	<path d="M143.6,37.5h2.2l-3.5,15.6h-2.2L143.6,37.5z M145,31.5h2.2l-0.6,2.5h-2.2L145,31.5z"/>
	<path d="M150,37.5h2.2l-0.4,1.9h0.1c1.7-1.9,2.7-2.2,4.4-2.2l-0.5,2c-1.6,0-3,0.5-4.6,2.8l-2.5,11.1h-2.2L150,37.5z"/>
	<path d="M160,31.5h2.2l-4.8,21.7h-2.2L160,31.5z"/>
	<path d="M170.4,41.5c-0.1-1.3-0.4-2.5-2.2-2.5c-1,0-1.9,0.8-2.2,1.9c-0.7,3.2,5.9,3.4,4.8,8.2c-0.5,2.5-2.8,4.3-5.2,4.3
		c-2.8,0-3.9-1.5-4.1-4.1l2.1-0.4c0.1,1.4,0.6,2.8,2.2,2.8c1.2,0,2.5-1.1,2.8-2.4c0.8-3.6-5.8-3.7-4.8-8.2c0.5-2,2.5-3.8,4.9-3.8
		s3.5,1.4,3.5,3.7L170.4,41.5z"/>
</g>
</svg>
