<?xml version="1.0" encoding="utf-8"?>
<!-- Generator: Adobe Illustrator 18.1.0, SVG Export Plug-In . SVG Version: 6.00 Build 0)  -->
<svg version="1.1" id="Layer_1" xmlns="http://www.w3.org/2000/svg" xmlns:xlink="http://www.w3.org/1999/xlink" x="0px" y="0px"
	 viewBox="0 0 612 792" enable-background="new 0 0 612 792" xml:space="preserve">
<g>
	<path d="M15.7,1.3l-0.4,2H7.7l-1.6,7.4h5.6l-0.4,2H5.7L3.9,21h7.9l-0.4,2H1.1L5.9,1.3L15.7,1.3L15.7,1.3z"/>
	<path d="M21.7,1.3L17.3,21h7l-0.4,2h-9.4l4.8-21.7H21.7z"/>
	<path d="M41.2,1.3l-0.4,2h-7.6l-1.6,7.4h5.6l-0.4,2h-5.6L29.4,21h7.9l-0.4,2H26.6l4.8-21.7L41.2,1.3L41.2,1.3z"/>
	<path d="M52.3,7.8c0.5-3.4-0.3-4.9-2.1-4.9c-2.7,0-4.5,2.4-6,9.1s-0.8,9.1,1.9,9.1c2.2,0,3.8-1.5,4.7-5.5h2.3
		c-1.1,4.8-3.8,7.5-7.5,7.5c-3.9,0-5.6-2.9-3.8-11.1c1.8-8.2,4.9-11.1,8.7-11.1c3.2,0,4.7,2.2,4,6.8h-2.2V7.8z"/>
	<path d="M69.5,1.3l-0.4,2h-4.4L60.3,23H58l4.4-19.7h-4.5l0.4-2H69.5z"/>
	<path d="M72,1.3h5.2c3.5,0,5.5,2,4.7,5.6c-0.5,2.4-2.1,4.5-4.7,5.3l1.3,10.7H76l-1.2-10.3l-3.1,0.1l-2.2,10.1h-2.3L72,1.3z
		 M72.2,10.8h2c3.4,0,4.7-1.3,5.3-3.7c0.5-2.4-0.2-3.8-3.6-3.8h-2L72.2,10.8z"/>
	<path d="M89.8,1.3L85,23h-2.3l4.8-21.7H89.8z"/>
	<path d="M94.4,1.3h9.3l-0.4,2h-7l-1.6,7.4h5.2l-0.4,2h-5.2L92,23h-2.3L94.4,1.3z"/>
	<path d="M107.3,1.3l1.6,9.5l5.7-9.5h2.5l-7.7,12.5l-2,9.2h-2.3l2-9.2l-2.3-12.5H107.3z"/>
	<path d="M122.4,1.3L117.6,23h-2.3l4.8-21.7H122.4z"/>
	<path d="M130.1,1.3l2,16h0.1l3.5-16h2.3L133.2,23h-2.5l-2.5-18.8h-0.1L123.9,23h-2.3l4.8-21.7H130.1z"/>
	<path d="M149.5,8c0.4-2.8,0.1-5-2.3-5c-2.6,0-4.4,2.3-5.9,9.1c-1.5,6.8-0.8,9.1,1.8,9.1c2.2,0,3.7-1.2,4.1-3.4l0.7-3.1H145l0.4-2
		h5.3l-2.2,10.1H147l0.1-1.6c-1.2,1.2-2.6,1.9-4.4,1.9c-3.8,0-5.6-2.9-3.7-11.1c1.8-8.2,4.9-11.1,8.7-11.1c4,0,4.7,3.5,4.2,7h-2.4V8
		z"/>
	<path d="M98.3,31.3V53H96l0.1-6.4h-5.5L87.9,53h-2.3l9.6-21.7H98.3z M91.3,44.6h4.9L96.4,33h-0.1L91.3,44.6z"/>
	<path d="M109.3,42c0.3-2.3-0.4-3.1-1.8-3.1c-1.8,0-2.9,1.1-4,6.3c-1.1,5.2-0.6,6.3,1.2,6.3c1.4,0,2.3-0.7,3.3-3.4h2.1
		c-1,3.1-3,5.2-5.8,5.2c-3.3,0-4.2-2.5-3-8.1s3.3-8.1,6.6-8.1c2.8,0,3.7,1.9,3.5,4.9L109.3,42L109.3,42z"/>
	<path d="M113.9,37.4h2.1l1.2-5.2h2.2l-1.2,5.2h2.9l-0.4,1.8h-2.9l-2.4,10.9c-0.2,0.9,0.1,1.6,1.2,1.6c0.4,0,1-0.2,1.4-0.3l-0.4,1.6
		c-0.6,0.2-1.2,0.3-2.1,0.3c-2,0-2.8-1-2.3-3.4l2.4-10.7h-2.1L113.9,37.4z"/>
	<path d="M124.3,37.4h2.2L123,53h-2.2L124.3,37.4z M125.6,31.3h2.2l-0.6,2.5H125L125.6,31.3z"/>
	<path d="M134.6,37.1c3.3,0,4.2,2.5,3,8.1s-3.3,8.1-6.6,8.1c-3.3,0-4.2-2.5-3-8.1C129.3,39.5,131.3,37.1,134.6,37.1z M131.4,51.5
		c1.8,0,2.9-1.1,4-6.3c1.1-5.2,0.6-6.3-1.2-6.3c-1.8,0-2.9,1.1-4,6.3C129,50.3,129.6,51.5,131.4,51.5z"/>
	<path d="M142.5,37.4h2l-0.4,1.7c1.3-1,3-2,4-2c2.2,0,3.2,1.2,2.5,4.1L148,53h-2.1l2.6-11.5c0.4-1.8,0-2.6-1.1-2.6
		c-1,0-2.2,0.7-3.4,1.9L141.3,53h-2.2L142.5,37.4z"/>
</g>
</svg>
