<?xml version="1.0" encoding="utf-8"?>
<!-- Generator: Adobe Illustrator 18.1.0, SVG Export Plug-In . SVG Version: 6.00 Build 0)  -->
<svg version="1.1" id="Layer_1" xmlns="http://www.w3.org/2000/svg" xmlns:xlink="http://www.w3.org/1999/xlink" x="0px" y="0px"
	 viewBox="0 0 612 792" enable-background="new 0 0 612 792" xml:space="preserve">
<g>
	<path d="M5.6,1.3h9.3l-0.4,2h-7l-1.6,7.4h5.2l-0.4,2H5.5L3.2,23H0.9L5.6,1.3z"/>
	<path d="M20,1.3l-3.5,15.9c-0.5,2.2-0.3,4.1,2.3,4.1s3.6-1.9,4.1-4.1l3.5-15.9h2.3l-3.5,16c-0.8,3.5-3,6-6.9,6s-5-2.5-4.2-6l3.5-16
		H20z"/>
	<path d="M35,1.3L30.6,21h7l-0.4,2h-9.4l4.8-21.7H35z"/>
	<path d="M46.7,1.3L42.3,21h7l-0.4,2h-9.4l4.8-21.7H46.7z"/>
	<path d="M54.8,1.3l1.6,9.5l5.7-9.5h2.5l-7.7,12.5l-2,9.2h-2.3l2-9.2L52.3,1.3H54.8z"/>
	<path d="M81.2,7.9C81.7,4.5,80.9,3,79.1,3c-2.7,0-4.5,2.4-6,9.1s-0.8,9.1,1.9,9.1c2.2,0,3.8-1.5,4.7-5.5H82
		c-1.1,4.8-3.8,7.5-7.5,7.5c-3.9,0-5.6-2.9-3.8-11.1C72.5,3.9,75.6,1,79.4,1c3.2,0,4.7,2.2,4,6.8h-2.2V7.9z"/>
	<path d="M91.1,1.3L89,10.7h6.4l2.1-9.4h2.3L95,23h-2.3L95,12.7h-6.4L86.3,23H84l4.8-21.7H91.1z"/>
	<path d="M110.1,1.3V23h-2.3l0.1-6.4h-5.6L99.6,23h-2.3l9.6-21.7H110.1z M103.1,14.6h4.9L108.2,3h-0.1L103.1,14.6z"/>
	<path d="M117.1,1.3h5.2c3.5,0,5.5,2,4.7,5.6c-0.5,2.4-2.1,4.5-4.7,5.3l1.3,10.7h-2.5l-1.2-10.3l-3.1,0.1l-2.2,10.1h-2.3L117.1,1.3z
		 M117.3,10.8h2c3.4,0,4.7-1.3,5.3-3.7c0.5-2.4-0.2-3.8-3.6-3.8h-2L117.3,10.8z"/>
	<path d="M139.6,8c0.4-2.8,0.1-5-2.3-5c-2.6,0-4.4,2.3-5.9,9.1c-1.5,6.8-0.8,9.1,1.8,9.1c2.2,0,3.7-1.2,4.1-3.4l0.7-3.1h-2.9l0.4-2
		h5.3l-2.2,10.1h-1.5l0.1-1.6c-1.2,1.2-2.6,1.9-4.4,1.9c-3.8,0-5.6-2.9-3.7-11.1c1.8-8.2,4.9-11.1,8.7-11.1c4,0,4.7,3.5,4.2,7h-2.4
		V8z"/>
	<path d="M157,1.3l-0.4,2H149l-1.6,7.4h5.6l-0.4,2H147l-1.8,8.3h7.9l-0.4,2h-10.4l4.8-21.7L157,1.3L157,1.3z"/>
	<path d="M160.4,1.3h4c4.6,0,6.8,2.5,4.9,10.8s-5.2,10.8-9.7,10.8h-4L160.4,1.3z M158.4,21h1.3c3.4,0,5.7-1.4,7.4-8.8
		c1.6-7.4,0-8.8-3.4-8.8h-1.4L158.4,21z"/>
	<path d="M95.7,37.4h2.1l1.2-5.2h2.2l-1.2,5.2h2.9l-0.4,1.8h-2.9l-2.4,10.9c-0.2,0.9,0.1,1.6,1.2,1.6c0.4,0,1-0.2,1.4-0.3L99.4,53
		c-0.6,0.2-1.2,0.3-2.1,0.3c-2,0-2.8-1-2.3-3.4l2.4-10.7h-2.1L95.7,37.4z"/>
	<path d="M109.7,37.1c3.3,0,4.2,2.5,3,8.1c-1.3,5.6-3.3,8.1-6.6,8.1s-4.2-2.5-3-8.1S106.4,37.1,109.7,37.1z M106.5,51.5
		c1.8,0,2.9-1.1,4-6.3c1.1-5.2,0.6-6.3-1.2-6.3s-2.9,1.1-4,6.3C104.1,50.4,104.6,51.5,106.5,51.5z"/>
	<path d="M127.8,31.3L123.4,51h7l-0.4,2h-9.4l4.8-21.7H127.8z"/>
	<path d="M135.2,45.6l-0.2,0.9c-0.8,3.8-0.3,5.1,1.8,5.1c1.7,0,2.7-1.5,3.3-2.9l2,0.2c-0.8,2.3-3.1,4.5-5.9,4.5
		c-3.3,0-4.2-2.5-3-8.1s3.3-8.1,6.6-8.1c3.3,0,4.1,2.9,3.1,7.4l-0.2,1H135.2z M140.8,43.8c0.7-3.4,0.4-4.9-1.5-4.9
		c-1.6,0-2.8,1.1-3.7,4.9H140.8z"/>
	<path d="M146.4,41.7c1-2.5,2.9-4.6,5.6-4.6c2.9,0,4.1,1.7,3.5,4.4l-1.9,8.7c-0.3,1.4-0.4,2.4-0.2,2.8h-2.2v-1.3
		c-1,0.8-2.7,1.6-3.7,1.6c-2.4,0-3.7-1.6-3.2-4c0.9-3.8,5.5-5.8,8.8-6.5l0.2-1.1c0.4-1.7-0.3-2.8-1.6-2.8c-1.7,0-2.8,1.7-3.4,3.1
		L146.4,41.7z M152.6,44.6c-2.1,0.6-5.6,2-6.2,4.5c-0.3,1.5,0.1,2.4,1.7,2.4c1.2,0,2.4-0.8,3.3-1.6L152.6,44.6z"/>
	<path d="M164.9,51.5L164.9,51.5c-1.1,1.1-2.3,1.8-3.7,1.8c-2.5,0-4-2.1-2.7-8.1s3.8-8.1,6.3-8.1c1.2,0,2,0.7,2.6,1.4l1.6-7.2h2.2
		l-3.9,17.5c-0.5,2-0.6,3.3-0.6,4.2h-2L164.9,51.5z M167,40.3c-0.5-0.6-1.1-1.4-2-1.4c-1.8,0-3.2,1.5-4.3,6.3s-0.3,6.3,1.5,6.3
		c0.7,0,1.8-0.6,2.6-1.5L167,40.3z"/>
</g>
</svg>
