<?xml version="1.0" encoding="utf-8"?>
<!-- Generator: Adobe Illustrator 18.1.0, SVG Export Plug-In . SVG Version: 6.00 Build 0)  -->
<svg version="1.1" id="Layer_1" xmlns="http://www.w3.org/2000/svg" xmlns:xlink="http://www.w3.org/1999/xlink" x="0px" y="0px"
	 viewBox="0 0 612 792" enable-background="new 0 0 612 792" xml:space="preserve">
<g>
	<path d="M5.6,0.9h5.2c3.5,0,5.5,2,4.7,5.6c-0.5,2.4-2.1,4.5-4.7,5.3l1.3,10.7H9.6L8.4,12.2l-3.1,0.1L3.1,22.4H0.8L5.6,0.9z
		 M5.8,10.3h2c3.4,0,4.7-1.3,5.3-3.7c0.5-2.4-0.2-3.8-3.6-3.8h-2L5.8,10.3z"/>
	<path d="M30.4,0.9l-0.4,2h-7.6l-1.6,7.4h5.6l-0.4,2h-5.6l-1.8,8.3h7.9l-0.4,2H15.8l4.8-21.7L30.4,0.9L30.4,0.9z"/>
	<path d="M36.6,0.9l-4.8,21.7h-2.3l4.8-21.7H36.6z"/>
	<path d="M44.2,0.9l2,16h0.1l3.5-16h2.3l-4.8,21.7h-2.5L42.3,3.8h-0.1L38,22.6h-2.3l4.8-21.7H44.2z"/>
	<path d="M56.9,0.9v17.2H57l7.6-17.2h2.3L57,22.6h-2.2L54.5,0.9H56.9z"/>
	<path d="M79.5,0.9l-0.4,2h-7.6l-1.6,7.4h5.6l-0.4,2h-5.6l-1.8,8.3h7.9l-0.4,2H64.9l4.8-21.7L79.5,0.9L79.5,0.9z"/>
	<path d="M86.4,0.9l2,16h0.1l3.5-16h2.3l-4.8,21.7H87L84.5,3.8h-0.1l-4.2,18.8H78l4.8-21.7H86.4z"/>
	<path d="M107.7,0.9l-0.4,2h-4.4l-4.4,19.7h-2.3l4.4-19.7H96l0.4-2H107.7z"/>
	<path d="M112.6,0.9l-4.8,21.7h-2.3l4.8-21.7H112.6z"/>
	<path d="M120.3,0.9l2,16h0.1l3.5-16h2.3l-4.8,21.7H121l-2.5-18.8h-0.1l-4.2,18.8h-2.3l4.8-21.7H120.3z"/>
	<path d="M139.6,7.5c0.4-2.8,0.1-5-2.3-5c-2.6,0-4.4,2.3-5.9,9.1c-1.5,6.8-0.8,9.1,1.8,9.1c2.2,0,3.7-1.2,4.1-3.4l0.7-3.1h-2.9
		l0.4-2h5.3l-2.2,10.1h-1.5l0.1-1.6c-1.2,1.2-2.6,1.9-4.4,1.9c-3.8,0-5.6-2.9-3.7-11.1c1.8-8.2,4.9-11.1,8.7-11.1c4,0,4.7,3.5,4.2,7
		h-2.4V7.5z"/>
	<path d="M71.6,30.9l-0.4,2h-7.6L62,40.3h5.6l-0.4,2h-5.6l-1.8,8.3h7.9l-0.4,2H57l4.8-21.7L71.6,30.9L71.6,30.9z"/>
	<path d="M80.9,36.9h1.8l-4.6,20.7h-2.2l1.4-6.2c-0.9,0.7-2,1.4-3.2,1.4c-2.5,0-4-2.1-2.7-8.1s3.8-8.1,6.3-8.1
		c1.4,0,2.3,0.7,2.8,1.8h0.1L80.9,36.9z M79.8,39.9c-0.5-0.9-1.3-1.5-1.9-1.5c-1.8,0-3.3,1.5-4.3,6.3S73.3,51,75.1,51
		c1,0,1.9-0.8,2.6-1.4L79.8,39.9z"/>
	<path d="M92.7,52.5h-2l0.4-1.7c-1.3,1-3,2-4,2c-2.2,0-3.2-1.2-2.5-4.1l2.6-11.8h2.2l-2.6,11.5c-0.4,1.8,0,2.6,1.1,2.6
		c1,0,2.2-0.7,3.4-1.9L94,36.9h2.2L92.7,52.5z"/>
	<path d="M99.2,41.2c1-2.5,2.9-4.6,5.6-4.6c2.9,0,4.1,1.7,3.5,4.4l-1.9,8.7c-0.3,1.4-0.4,2.4-0.2,2.8H104v-1.3
		c-1,0.8-2.7,1.6-3.7,1.6c-2.4,0-3.7-1.6-3.2-4c0.9-3.8,5.5-5.8,8.8-6.5l0.2-1.1c0.4-1.7-0.3-2.8-1.6-2.8c-1.6,0-2.8,1.7-3.4,3.1
		L99.2,41.2z M105.5,44.1c-2.1,0.6-5.6,2-6.2,4.5C99,50.1,99.4,51,101,51c1.2,0,2.4-0.8,3.3-1.6L105.5,44.1z"/>
	<path d="M115.2,30.9h2.2l-4.8,21.7h-2.2L115.2,30.9z"/>
	<path d="M120.5,36.9h2.2l-3.5,15.6H117L120.5,36.9z M121.9,30.9h2.2l-0.6,2.5h-2.2L121.9,30.9z"/>
	<path d="M125.4,36.9h2.1l1.2-5.2h2.2l-1.2,5.2h2.9l-0.4,1.8h-2.9l-2.4,10.9c-0.2,0.9,0.1,1.6,1.2,1.6c0.4,0,1-0.2,1.4-0.3l-0.4,1.6
		c-0.6,0.2-1.2,0.3-2.1,0.3c-2,0-2.8-1-2.3-3.4l2.4-10.7H125L125.4,36.9z"/>
	<path d="M136.1,36.9l0.3,11.9h0.1l5-11.9h2.2l-7,15.3c-1.6,3.4-3.5,5.4-6.1,5.4h-1.1l0.4-1.8h0.7c1.7,0,3.1-1.2,4-3.4l-0.7-15.5
		H136.1z"/>
</g>
</svg>
