<?xml version="1.0" encoding="utf-8"?>
<!-- Generator: Adobe Illustrator 18.1.0, SVG Export Plug-In . SVG Version: 6.00 Build 0)  -->
<svg version="1.1" id="Layer_1" xmlns="http://www.w3.org/2000/svg" xmlns:xlink="http://www.w3.org/1999/xlink" x="0px" y="0px"
	 viewBox="0 0 612 792" enable-background="new 0 0 612 792" xml:space="preserve">
<g>
	<path d="M12.1,6.7c0.3-2.2-0.2-3.9-2.5-3.9C7.8,2.8,6.4,4,6,5.6c-1.1,4.9,7.6,4.9,6.1,11.9C11.3,20.9,8.9,23,5.3,23
		c-3.4,0-4.9-2.5-4.1-6.1h2.2C2.9,19.4,3.7,21,6.1,21c2,0,3.5-1.3,4-3.6c1.1-4.9-7.5-5.5-6.1-11.7c0.7-3.1,3.2-5,6.3-5
		c3.1,0,4.7,2.1,4,5.9h-2.2V6.7z"/>
	<path d="M21.5,1.1l-2.1,9.4h6.4l2.1-9.4h2.3l-4.8,21.7h-2.3l2.3-10.3H19l-2.3,10.3h-2.3l4.8-21.7H21.5z"/>
	<path d="M36.8,1.1L33.3,17c-0.5,2.2-0.3,4.1,2.3,4.1c2.6,0,3.6-1.9,4.1-4.1l3.5-15.9h2.3l-3.5,16c-0.8,3.5-3,6-6.9,6s-5-2.5-4.2-6
		l3.5-16H36.8z"/>
	<path d="M59.1,1.1l-0.4,2h-4.4l-4.4,19.7h-2.3L52,3.1h-4.4l0.4-2H59.1z"/>
	<path d="M71.1,1.1l-0.4,2h-4.4l-4.4,19.7h-2.3L64,3.1h-4.4l0.4-2H71.1z"/>
	<path d="M76.1,1.1l-4.8,21.7H69l4.8-21.7H76.1z"/>
	<path d="M83.9,1.1l2,16H86l3.5-16h2.3L87,22.8h-2.5L82,4h-0.1l-4.2,18.8h-2.3l4.8-21.7H83.9z"/>
	<path d="M103.3,7.8c0.4-2.8,0.1-5-2.3-5c-2.6,0-4.4,2.3-5.9,9.1c-1.5,6.8-0.8,9.1,1.8,9.1c2.2,0,3.7-1.2,4.1-3.4l0.7-3.1h-2.9
		l0.4-2h5.3l-2.2,10.1h-1.5l0.1-1.6c-1.2,1.2-2.6,1.9-4.4,1.9c-3.8,0-5.6-2.9-3.7-11.1c1.8-8.2,4.9-11.1,8.7-11.1c4,0,4.7,3.5,4.2,7
		h-2.4V7.8z"/>
	<path d="M118,1.1h4c4.6,0,6.8,2.5,4.9,10.8c-1.9,8.3-5.2,10.8-9.7,10.8h-4L118,1.1z M116,20.8h1.3c3.4,0,5.7-1.4,7.4-8.8
		s0-8.8-3.4-8.8H120L116,20.8z"/>
	<path d="M133.9,23.1c-3.7,0-5.4-3.1-3.7-11.1c1.8-8.1,4.9-11.1,8.6-11.1s5.4,3.1,3.7,11.1C140.7,20,137.6,23.1,133.9,23.1z
		 M138.4,2.8c-2.1,0-4.2,1.8-5.8,9.1s-0.3,9.1,1.8,9.1c2.1,0,4.2-1.8,5.8-9.1S140.5,2.8,138.4,2.8z"/>
	<path d="M148.9,1.1L147.7,18h0.1l7-16.9h1.9L156.3,18h0.1l6.2-16.9h2.2l-8.3,21.7h-2l0.4-17h-0.1l-7.2,17h-2l1.2-21.7H148.9z"/>
	<path d="M170.5,1.1l2,16h0.1l3.5-16h2.3l-4.8,21.7h-2.5L168.6,4h-0.1l-4.2,18.8H162l4.8-21.7H170.5z"/>
	<path d="M79.9,31.1l-0.4,2H75l-4.4,19.7h-2.3l4.4-19.7h-4.4l0.4-2H79.9z"/>
	<path d="M79.1,37.2h2.2l-0.4,1.9H81c1.7-1.9,2.7-2.2,4.4-2.2l-0.5,2c-1.6,0-3,0.5-4.6,2.8l-2.5,11.1h-2.2L79.1,37.2z"/>
	<path d="M86.4,41.4c1-2.5,2.9-4.6,5.6-4.6c2.9,0,4.1,1.7,3.5,4.4l-1.9,8.7c-0.3,1.4-0.4,2.4-0.2,2.8h-2.2v-1.3
		c-1,0.8-2.7,1.6-3.7,1.6c-2.4,0-3.7-1.6-3.2-4c0.9-3.8,5.5-5.8,8.8-6.5l0.2-1.1c0.4-1.7-0.3-2.8-1.6-2.8c-1.6,0-2.8,1.7-3.4,3.1
		L86.4,41.4z M92.7,44.4c-2.1,0.6-5.6,2-6.2,4.5c-0.3,1.5,0.1,2.4,1.7,2.4c1.2,0,2.4-0.8,3.3-1.6L92.7,44.4z"/>
	<path d="M99.4,37.2h2.4l0.7-3.2c0.5-2.1,1.5-3.2,3.9-3.2c0.6,0,1.2,0.1,1.6,0.2l-0.4,1.7c-0.3-0.2-0.7-0.2-1.1-0.2
		c-1,0-1.7,0.7-1.9,1.6l-0.7,3.1h2.5L106,39h-2.5l-3.1,13.8h-2.2l3.1-13.8H99L99.4,37.2z"/>
	<path d="M107.7,37.2h2.4l0.7-3.2c0.5-2.1,1.5-3.2,3.9-3.2c0.6,0,1.2,0.1,1.6,0.2l-0.4,1.7c-0.3-0.2-0.7-0.2-1.1-0.2
		c-1,0-1.7,0.7-1.9,1.6l-0.7,3.1h2.5l-0.4,1.8h-2.5l-3.1,13.8h-2.2l3.1-13.8h-2.4L107.7,37.2z"/>
	<path d="M117.7,37.2h2.2l-3.5,15.6h-2.2L117.7,37.2z M119.1,31.1h2.2l-0.6,2.5h-2.2L119.1,31.1z"/>
	<path d="M129.4,41.8c0.3-2.3-0.4-3.1-1.8-3.1c-1.8,0-2.9,1.1-4,6.3c-1.1,5.2-0.6,6.3,1.2,6.3c1.4,0,2.3-0.7,3.3-3.4h2.1
		c-1,3.1-3,5.2-5.8,5.2c-3.3,0-4.2-2.5-3-8.1s3.3-8.1,6.6-8.1c2.8,0,3.7,1.9,3.5,4.9L129.4,41.8L129.4,41.8z"/>
	<path d="M137.1,31.1h2.2l-3,13.7h0.1l5.8-7.6h2.2l-4,5l1.2,10.6h-2.2l-0.9-8.5h-0.1l-2.9,3.8l-1,4.6h-2.2L137.1,31.1z"/>
	<path d="M147.7,37.2h2.2l-3.5,15.6h-2.2L147.7,37.2z M149.1,31.1h2.2l-0.6,2.5h-2.2L149.1,31.1z"/>
	<path d="M154.3,37.2h2l-0.4,1.7c1.3-1,3-2,4-2c2.2,0,3.2,1.2,2.5,4.1l-2.6,11.8h-2.2l2.6-11.5c0.4-1.8,0-2.6-1.1-2.6
		c-1,0-2.2,0.7-3.4,1.9L153,52.8h-2.2L154.3,37.2z"/>
	<path d="M177.3,38.8c-0.2-0.1-0.4-0.1-0.6-0.1c-0.6,0-1,0.2-1.5,0.6c0.1,1,0.1,1.7-0.2,3c-0.9,3.9-3,5.6-5.4,5.6
		c-0.5,0-0.9-0.1-1.4-0.1c-0.4,0.1-1.2,0.4-1.3,1c-0.2,1.1,1.5,1.2,3.4,1.6c2.1,0.5,4,1.2,3.4,3.8c-0.5,2-2.8,3.7-6.1,3.7
		c-3.5,0-5-1.3-4.6-3.4c0.3-1.4,1.4-2.5,3-3.1c-0.9-0.3-1.4-1-1.2-2.1c0.3-1.2,1.4-1.9,2.5-2.1c-1-0.9-1.2-2.8-0.9-4.5
		c0.8-3.7,3.1-5.9,5.8-5.9c1,0,2.2,0.5,2.5,1.4c0.7-0.8,1.6-1.4,3-1.4L177.3,38.8z M167.7,51.9c-1.4,0.5-2.4,1.3-2.6,2.1
		c-0.3,1.3,0.6,2.2,2.9,2.2c2.4,0,3.5-1,3.7-2.2C172.1,52.6,169.5,52.3,167.7,51.9z M169.9,46.3c1.3,0,2.5-1,3.2-3.9
		c0.7-3-0.1-3.9-1.4-3.9s-2.5,1-3.2,3.9C167.8,45.4,168.7,46.3,169.9,46.3z"/>
</g>
</svg>
