<?xml version="1.0" encoding="utf-8"?>
<!-- Generator: Adobe Illustrator 18.1.0, SVG Export Plug-In . SVG Version: 6.00 Build 0)  -->
<svg version="1.1" id="Layer_1" xmlns="http://www.w3.org/2000/svg" xmlns:xlink="http://www.w3.org/1999/xlink" x="0px" y="0px"
	 viewBox="0 0 612 792" enable-background="new 0 0 612 792" xml:space="preserve">
<g>
	<path d="M45.7,7.5c0.3-2.2-0.2-3.9-2.5-3.9c-1.8,0-3.2,1.2-3.6,2.8c-1.1,4.9,7.6,4.9,6.1,11.9c-0.8,3.4-3.2,5.5-6.8,5.5
		c-3.4,0-4.9-2.5-4.1-6.1H37c-0.5,2.5,0.3,4.1,2.7,4.1c2,0,3.5-1.3,4-3.6c1.1-4.9-7.5-5.5-6.1-11.7c0.7-3.1,3.2-5,6.3-5
		s4.7,2.1,4,5.9h-2.2V7.5z"/>
	<path d="M52.2,1.9h5.1c3.5,0,5.2,2.3,4.4,5.9c-0.8,3.6-3.6,5.9-7.1,5.9h-2.8l-2.2,9.8h-2.3L52.2,1.9z M52.4,11.8h2.5
		c2.3,0,4-1.3,4.6-4s-0.5-4-2.8-4h-2.5L52.4,11.8z"/>
	<path d="M71.6,1.9v21.7h-2.3l0.1-6.4h-5.5l-2.7,6.4h-2.4l9.6-21.7H71.6z M64.6,15.2h4.9l0.2-11.6h-0.1L64.6,15.2z"/>
	<path d="M78.6,1.9h5.2c3.5,0,5.5,2,4.7,5.6c-0.5,2.4-2.1,4.5-4.7,5.3l1.3,10.7h-2.5l-1.2-10.3l-3.1,0.1l-2.2,10.1h-2.3L78.6,1.9z
		 M78.9,11.4h2c3.4,0,4.7-1.3,5.3-3.7c0.5-2.4-0.2-3.8-3.6-3.8h-2L78.9,11.4z"/>
	<path d="M95.7,1.9l-2.4,11h0.1l8.5-11h2.5l-5.9,7.6l1.9,14.1h-2.6l-1.4-11.7h-0.1l-3.9,5l-1.5,6.7h-2.3l4.8-21.7H95.7z"/>
	<path d="M109.5,1.9l-4.8,21.7h-2.3l4.8-21.7H109.5z"/>
	<path d="M117,1.9l2,16h0.1l3.5-16h2.3l-4.8,21.7h-2.5l-2.5-18.8H115l-4.2,18.8h-2.3l4.8-21.7H117z"/>
	<path d="M136.1,8.6c0.4-2.8,0.1-5-2.3-5c-2.6,0-4.4,2.3-5.9,9.1c-1.5,6.8-0.8,9.1,1.8,9.1c2.2,0,3.7-1.2,4.1-3.4l0.7-3.1h-2.9
		l0.4-2h5.3l-2.2,10.1h-1.5l0.1-1.6c-1.2,1.2-2.6,1.9-4.4,1.9c-3.8,0-5.6-2.9-3.7-11.1c1.8-8.2,4.9-11.1,8.7-11.1c4,0,4.7,3.5,4.2,7
		h-2.4V8.6z"/>
	<path d="M157.7,8.4c0.5-3.4-0.3-4.9-2.1-4.9c-2.7,0-4.5,2.4-6,9.1s-0.8,9.1,1.9,9.1c2.2,0,3.8-1.5,4.7-5.5h2.3
		c-1.1,4.8-3.8,7.5-7.5,7.5c-3.9,0-5.6-2.9-3.8-11.1c1.8-8.2,4.9-11.1,8.7-11.1c3.2,0,4.7,2.2,4,6.8h-2.2V8.4z"/>
	<path d="M167.6,1.9l-2.1,9.4h6.4l2.1-9.4h2.3l-4.8,21.7h-2.3l2.3-10.3h-6.4l-2.3,10.3h-2.3l4.8-21.7H167.6z"/>
	<path d="M186.6,1.9v21.7h-2.3l0.1-6.4h-5.6l-2.7,6.4h-2.3l9.6-21.7H186.6z M179.6,15.2h4.9l0.2-11.6h-0.1L179.6,15.2z"/>
	<path d="M197,1.9l2,16h0.1l3.5-16h2.3l-4.8,21.7h-2.5l-2.5-18.8H195l-4.2,18.8h-2.3l4.8-21.7H197z"/>
	<path d="M216.1,8.6c0.4-2.8,0.1-5-2.3-5c-2.6,0-4.4,2.3-5.9,9.1c-1.5,6.8-0.8,9.1,1.8,9.1c2.2,0,3.7-1.2,4.1-3.4l0.7-3.1h-2.9
		l0.4-2h5.3l-2.2,10.1h-1.5l0.1-1.6c-1.2,1.2-2.6,1.9-4.4,1.9c-3.8,0-5.6-2.9-3.7-11.1c1.8-8.2,4.9-11.1,8.7-11.1c4,0,4.7,3.5,4.2,7
		h-2.4V8.6z"/>
	<path d="M233.5,1.9l-0.4,2h-7.6l-1.6,7.4h5.6l-0.4,2h-5.6l-1.8,8.3h7.9l-0.4,2h-10.4l4.8-21.7L233.5,1.9L233.5,1.9z"/>
	<path d="M5,38h2.2L3.7,53.6H1.5L5,38z M6.3,31.9h2.2l-0.6,2.5H5.8L6.3,31.9z"/>
	<path d="M11.6,38h2l-0.4,1.7c1.3-1,3-2,4-2c2.2,0,3.2,1.2,2.5,4.1l-2.6,11.8h-2.2l2.6-11.5c0.4-1.8,0-2.6-1.1-2.6
		c-1,0-2.2,0.7-3.4,1.9l-2.7,12.2H8.1L11.6,38z"/>
	<path d="M37.3,37.5c0.3-2.2-0.2-3.9-2.5-3.9c-1.8,0-3.2,1.2-3.6,2.8c-1.1,4.9,7.6,4.9,6.1,11.9c-0.8,3.5-3.2,5.5-6.8,5.5
		c-3.4,0-4.9-2.5-4.1-6.1h2.2c-0.5,2.5,0.3,4.1,2.7,4.1c2,0,3.5-1.3,4-3.6c1.1-4.9-7.5-5.5-6.1-11.7c0.7-3.1,3.2-5,6.3-5
		s4.7,2.1,4,5.9h-2.2V37.5z"/>
	<path d="M48.5,53.6h-2l0.4-1.7c-1.3,1-3,2-4,2c-2.2,0-3.2-1.2-2.5-4.1L43,38h2.2l-2.6,11.5c-0.4,1.8,0,2.6,1.1,2.6s2.2-0.7,3.4-1.9
		L49.8,38H52L48.5,53.6z"/>
	<path d="M54.3,53.6h-1.7c0.4-0.9,0.8-2.2,1.3-4.2l3.9-17.5H60l-1.6,7.2c0.9-0.7,2-1.4,3.2-1.4c2.5,0,4,2.1,2.7,8.1
		s-3.8,8.1-6.3,8.1c-1.4,0-2.3-0.7-2.8-1.8L54.3,53.6z M55.8,50.6c0.5,0.9,1.3,1.5,1.9,1.5c1.8,0,3.3-1.5,4.3-6.3s0.3-6.3-1.5-6.3
		c-1,0-1.9,0.8-2.6,1.4L55.8,50.6z"/>
	<path d="M66.9,45.7l0.4-2h7.4l-0.4,2H66.9z"/>
	<path d="M86.9,37.5c0.3-2.2-0.2-3.9-2.5-3.9c-1.8,0-3.2,1.2-3.6,2.8c-1.1,4.9,7.6,4.9,6.1,11.9c-0.8,3.5-3.2,5.5-6.8,5.5
		c-3.4,0-4.9-2.5-4.1-6.1h2.2c-0.5,2.5,0.3,4.1,2.7,4.1c2,0,3.5-1.3,4-3.6c1.1-4.9-7.5-5.5-6.1-11.7c0.7-3.1,3.2-5,6.3-5
		c3.1,0,4.7,2.1,4,5.9h-2.2V37.5z"/>
	<path d="M91.3,42.2c1-2.5,2.9-4.6,5.6-4.6c2.9,0,4.1,1.7,3.5,4.4l-1.9,8.7c-0.3,1.4-0.4,2.4-0.2,2.8h-2.2v-1.3
		c-1,0.8-2.7,1.6-3.7,1.6c-2.4,0-3.7-1.6-3.2-4c0.9-3.8,5.5-5.8,8.8-6.5l0.2-1.1c0.4-1.7-0.3-2.8-1.6-2.8c-1.6,0-2.8,1.7-3.4,3.1
		L91.3,42.2z M97.5,45.2c-2.1,0.6-5.6,2-6.2,4.5c-0.3,1.5,0.1,2.4,1.7,2.4c1.2,0,2.4-0.8,3.3-1.6L97.5,45.2z"/>
	<path d="M107.2,31.9h2.2l-1.7,7.8c1.1-1,2.8-2,3.9-2c2.2,0,3.2,1.2,2.5,4.1l-2.6,11.8h-2.2l2.6-11.5c0.4-1.8,0-2.6-1.1-2.6
		c-1,0-2.2,0.7-3.4,1.9l-2.7,12.2h-2.2L107.2,31.9z"/>
	<path d="M117.9,42.2c1-2.5,2.9-4.6,5.6-4.6c2.9,0,4.1,1.7,3.5,4.4l-1.9,8.7c-0.3,1.4-0.4,2.4-0.2,2.8h-2.2v-1.3
		c-1,0.8-2.7,1.6-3.7,1.6c-2.4,0-3.7-1.6-3.2-4c0.9-3.8,5.5-5.8,8.8-6.5l0.2-1.1c0.4-1.7-0.3-2.8-1.6-2.8c-1.6,0-2.8,1.7-3.4,3.1
		L117.9,42.2z M124.2,45.2c-2.1,0.6-5.6,2-6.2,4.5c-0.3,1.5,0.1,2.4,1.7,2.4c1.2,0,2.4-0.8,3.3-1.6L124.2,45.2z"/>
	<path d="M132.3,38h2.2l-0.4,1.9h0.1c1.7-1.9,2.7-2.2,4.4-2.2l-0.5,2c-1.6,0-3,0.5-4.6,2.8L131,53.6h-2.2L132.3,38z"/>
	<path d="M139.6,42.2c1-2.5,2.9-4.6,5.6-4.6c2.9,0,4.1,1.7,3.5,4.4l-1.9,8.7c-0.3,1.4-0.4,2.4-0.2,2.8h-2.2v-1.3
		c-1,0.8-2.7,1.6-3.7,1.6c-2.4,0-3.7-1.6-3.2-4c0.9-3.8,5.5-5.8,8.8-6.5l0.2-1.1c0.4-1.7-0.3-2.8-1.6-2.8c-1.6,0-2.8,1.7-3.4,3.1
		L139.6,42.2z M145.8,45.2c-2.1,0.6-5.6,2-6.2,4.5c-0.3,1.5,0.1,2.4,1.7,2.4c1.2,0,2.4-0.8,3.3-1.6L145.8,45.2z"/>
	<path d="M154.1,38h2l-0.4,1.7c1.3-1,3-2,4-2c2.2,0,3.2,1.2,2.5,4.1l-2.6,11.8h-2.2l2.6-11.5c0.4-1.8,0-2.6-1.1-2.6
		c-1,0-2.2,0.7-3.4,1.9l-2.7,12.2h-2.2L154.1,38z"/>
	<path d="M181.6,31.9v21.7h-2.3l0.1-6.4h-5.6l-2.7,6.4h-2.3l9.6-21.7H181.6z M174.6,45.2h4.9l0.2-11.6h-0.1L174.6,45.2z"/>
	<path d="M185.8,38h2.4l0.7-3.2c0.5-2.1,1.5-3.2,3.9-3.2c0.6,0,1.1,0.1,1.6,0.2l-0.4,1.7c-0.3-0.2-0.7-0.2-1.1-0.2
		c-1,0-1.7,0.7-1.9,1.6l-0.7,3.1h2.5l-0.4,1.8h-2.5l-3.1,13.8h-2.2l3.1-13.8h-2.4L185.8,38z"/>
	<path d="M195.6,38h2.2l-0.4,1.9h0.1c1.7-1.9,2.7-2.2,4.4-2.2l-0.5,2c-1.6,0-3,0.5-4.6,2.8l-2.5,11.1h-2.2L195.6,38z"/>
	<path d="M204.2,38h2.2l-3.5,15.6h-2.2L204.2,38z M205.5,31.9h2.2l-0.6,2.5h-2.2L205.5,31.9z"/>
	<path d="M215.9,42.6c0.3-2.3-0.4-3.1-1.8-3.1c-1.8,0-2.9,1.1-4,6.3c-1.1,5.2-0.6,6.3,1.2,6.3c1.4,0,2.3-0.7,3.3-3.4h2.1
		c-1,3.1-3,5.2-5.8,5.2c-3.3,0-4.2-2.5-3-8.1s3.3-8.1,6.6-8.1c2.8,0,3.7,1.9,3.5,4.9L215.9,42.6L215.9,42.6z"/>
	<path d="M221.2,42.2c1-2.5,2.9-4.6,5.6-4.6c2.9,0,4.1,1.7,3.5,4.4l-1.9,8.7c-0.3,1.4-0.4,2.4-0.2,2.8H226v-1.3
		c-1,0.8-2.7,1.6-3.7,1.6c-2.4,0-3.7-1.6-3.2-4c0.9-3.8,5.5-5.8,8.8-6.5l0.2-1.1c0.4-1.7-0.3-2.8-1.6-2.8c-1.6,0-2.8,1.7-3.4,3.1
		L221.2,42.2z M227.5,45.2c-2.1,0.6-5.6,2-6.2,4.5c-0.3,1.5,0.1,2.4,1.7,2.4c1.2,0,2.4-0.8,3.3-1.6L227.5,45.2z"/>
</g>
</svg>
