<?xml version="1.0" encoding="utf-8"?>
<!-- Generator: Adobe Illustrator 18.1.0, SVG Export Plug-In . SVG Version: 6.00 Build 0)  -->
<svg version="1.1" id="Layer_1" xmlns="http://www.w3.org/2000/svg" xmlns:xlink="http://www.w3.org/1999/xlink" x="0px" y="0px"
	 viewBox="0 0 612 792" enable-background="new 0 0 612 792" xml:space="preserve">
<g>
	<path d="M35.3,1.5l-1.2,16.9h0.1l7-16.9h1.9l-0.4,16.9h0.1l6.2-16.9H51l-8.3,21.7h-2l0.4-17h-0.1l-7.2,17h-2l1.2-21.7H35.3z"/>
	<path d="M56.2,1.5l-4.8,21.7H49l4.8-21.7H56.2z"/>
	<path d="M60.4,1.5h5.2c3.5,0,5.5,2,4.7,5.6c-0.5,2.4-2.1,4.5-4.7,5.3L67,23.2h-2.5l-1.2-10.3L60.2,13L58,23.2h-2.3L60.4,1.5z
		 M60.7,11h2c3.4,0,4.7-1.3,5.3-3.7c0.5-2.4-0.2-3.8-3.6-3.8h-2L60.7,11z"/>
	<path d="M85.5,1.5l-0.4,2h-7.6l-1.6,7.4h5.6l-0.4,2h-5.6l-1.8,8.3h7.9l-0.4,2H70.8l4.8-21.7H85.5z"/>
	<path d="M89,1.5h4c4.6,0,6.8,2.5,4.9,10.8s-5.2,10.8-9.7,10.8h-4L89,1.5z M87,21.2h1.3c3.4,0,5.7-1.4,7.4-8.8s0-8.8-3.4-8.8h-1.3
		L87,21.2z"/>
	<path d="M2.8,37.6h2.1L6,32.3h2.2L7,37.6h2.9l-0.4,1.8H6.6L4.2,50.3c-0.2,0.9,0.1,1.6,1.2,1.6c0.4,0,1-0.2,1.4-0.3l-0.4,1.6
		c-0.6,0.2-1.2,0.3-2.1,0.3c-2,0-2.8-1-2.3-3.4l2.4-10.7H2.4L2.8,37.6z"/>
	<path d="M17,37.3c3.3,0,4.2,2.5,3,8.1s-3.3,8.1-6.6,8.1c-3.3,0-4.2-2.5-3-8.1C11.7,39.7,13.7,37.3,17,37.3z M13.8,51.7
		c1.8,0,2.9-1.1,4-6.3c1.1-5.2,0.6-6.3-1.2-6.3c-1.8,0-2.9,1.1-4,6.3C11.5,50.5,12,51.7,13.8,51.7z"/>
	<path d="M30.7,31.5h4c4.6,0,6.8,2.5,4.9,10.8s-5.2,10.8-9.7,10.8h-4L30.7,31.5z M28.6,51.2h1.3c3.4,0,5.7-1.4,7.4-8.8
		c1.6-7.4,0-8.8-3.4-8.8h-1.3L28.6,51.2z"/>
	<path d="M43.8,45.7l-0.2,0.9c-0.8,3.8-0.3,5.1,1.8,5.1c1.7,0,2.7-1.5,3.3-2.9l2,0.2c-0.8,2.3-3.1,4.5-5.9,4.5c-3.3,0-4.2-2.5-3-8.1
		c1.2-5.6,3.3-8.1,6.6-8.1c3.3,0,4.1,2.9,3.1,7.4l-0.2,1H43.8z M49.4,43.9c0.7-3.4,0.4-4.9-1.5-4.9c-1.6,0-2.8,1.1-3.7,4.9H49.4z"/>
	<path d="M54.6,37.6H57l0.7-3.2c0.5-2.1,1.5-3.2,3.9-3.2c0.6,0,1.1,0.1,1.6,0.2l-0.4,1.7c-0.3-0.2-0.7-0.2-1.1-0.2
		c-1,0-1.7,0.7-1.9,1.6l-0.7,3.1h2.5l-0.4,1.8h-2.5l-3.1,13.8h-2.2l3.1-13.8h-2.4L54.6,37.6z"/>
	<path d="M63.8,45.7l-0.2,0.9c-0.8,3.8-0.3,5.1,1.8,5.1c1.7,0,2.7-1.5,3.3-2.9l2,0.2c-0.8,2.3-3.1,4.5-5.9,4.5c-3.3,0-4.2-2.5-3-8.1
		c1.2-5.6,3.3-8.1,6.6-8.1c3.3,0,4.1,2.9,3.1,7.4l-0.2,1H63.8z M69.4,43.9c0.7-3.4,0.4-4.9-1.5-4.9c-1.6,0-2.8,1.1-3.7,4.9H69.4z"/>
	<path d="M76.2,37.6h2l-0.4,1.7c1.3-1,3-2,4-2c2.2,0,3.2,1.2,2.5,4.1l-2.6,11.8h-2.2l2.6-11.5c0.4-1.8,0-2.6-1.1-2.6
		c-1,0-2.2,0.7-3.4,1.9l-2.7,12.2h-2.2L76.2,37.6z"/>
	<path d="M93.4,51.7L93.4,51.7c-1.1,1.1-2.3,1.8-3.7,1.8c-2.5,0-4-2.1-2.7-8.1c1.3-6,3.8-8.1,6.3-8.1c1.2,0,2,0.7,2.6,1.4l1.6-7.2
		h2.2L95.8,49c-0.5,2-0.6,3.3-0.6,4.2h-2L93.4,51.7z M95.5,40.4c-0.5-0.6-1.1-1.4-2-1.4c-1.8,0-3.2,1.5-4.3,6.3s-0.3,6.3,1.5,6.3
		c0.7,0,1.8-0.6,2.6-1.5L95.5,40.4z"/>
</g>
</svg>
